<svg id="flower_2" xmlns="http://www.w3.org/2000/svg" width="51" height="52" viewBox="0 0 51 52" fill="none">
    <g clip-path="url(#clip0_28_4551)">
        <path
            d="M38.2493 16.6166V8.64826C38.2493 7.76816 37.5359 7.05459 36.6557 7.05459H35.062V2.2736C35.062 1.39349 34.3485 0.67993 33.4683 0.67993C31.2121 0.67993 27.7568 0.507017 23.7007 2.93696C21.1794 2.18644 19.3962 2.2736 17.5317 2.2736C16.6515 2.2736 15.938 2.98716 15.938 3.86726V7.05459H14.3443C13.4641 7.05459 12.7507 7.76816 12.7507 8.64826V16.6166C12.7507 23.107 17.6258 28.4798 23.9063 29.2665V50.0836C23.9063 50.9637 24.6198 51.6772 25.5 51.6772C26.3802 51.6772 27.0937 50.9637 27.0937 50.0836V44.5057H29.4842C34.3173 44.5057 38.2493 40.5737 38.2493 35.7406V33.3501C38.2493 32.47 37.5359 31.7564 36.6557 31.7564H32.6715C30.5544 31.7564 28.6102 32.5109 27.0937 33.7651V29.2657C33.3648 28.4891 38.2493 23.1429 38.2493 16.6166ZM35.062 16.6166C35.062 19.4528 33.8077 22.0144 31.8253 23.7708C31.8565 23.5151 31.8747 23.2553 31.8747 22.9913C31.8747 18.9554 30.3659 15.2659 27.8837 12.455C29.9881 11.0191 32.483 10.2419 35.062 10.2419V16.6166ZM31.8747 3.86726V7.37612C31.5801 7.43608 31.2877 7.50451 30.9976 7.5809C29.9638 6.4236 28.7846 5.43762 27.4973 4.64089C28.8888 4.13211 30.3661 3.86726 31.8747 3.86726ZM19.1253 5.46093C22.2915 5.46093 25.3661 6.61703 27.7573 8.82595C26.9682 9.23323 26.2115 9.70805 25.4953 10.2464C23.6424 8.85334 21.4773 7.85432 19.1253 7.37502V5.46093ZM15.938 16.6166V10.2419C22.968 10.2419 28.6873 15.9612 28.6873 22.9913C28.6873 24.7722 27.2167 26.2233 25.4162 26.1771C19.8175 26.0388 15.938 21.5907 15.938 16.6166ZM32.6715 34.9437H35.062V35.7406C35.062 38.8162 32.5598 41.3184 29.4842 41.3184H27.0937V40.5216C27.0937 37.446 29.5959 34.9437 32.6715 34.9437Z"
            fill="white" />
    </g>
    <defs>
        <clipPath id="clip0_28_4551">
            <rect width="51" height="51" fill="white" transform="translate(0 0.677246)" />
        </clipPath>
    </defs>
</svg>