<svg id="google" xmlns="http://www.w3.org/2000/svg" width="32" height="32" viewBox="0 0 32 32" fill="none">
    <path fill-rule="evenodd" clip-rule="evenodd"
        d="M25.2691 13.8735H16.5833C16.5833 14.7768 16.5833 16.5834 16.5778 17.4867H21.6109C21.4181 18.39 20.7343 19.6546 19.768 20.2914C19.7671 20.2905 19.7662 20.2968 19.7644 20.2959C18.4798 21.1441 16.7845 21.3365 15.5258 21.0836C13.5528 20.6915 11.9913 19.2607 11.3573 17.4433C11.361 17.4406 11.3638 17.4153 11.3666 17.4135C10.9697 16.2862 10.9697 14.7768 11.3666 13.8735H11.3656C11.8769 12.2133 13.4854 10.6985 15.4612 10.2839C17.0503 9.94692 18.8434 10.3119 20.1621 11.5457C20.3374 11.3741 22.5891 9.17552 22.758 8.99666C18.2528 4.91651 11.039 6.35183 8.33967 11.6207H8.33875C8.33875 11.6207 8.33967 11.6207 8.33414 11.6307C6.9988 14.2186 7.05417 17.2681 8.34337 19.7323C8.33967 19.735 8.33691 19.7368 8.33414 19.7395C9.50244 22.0067 11.6287 23.7456 14.1904 24.4077C16.9119 25.1213 20.3753 24.6335 22.6953 22.5352C22.6962 22.5361 22.6971 22.537 22.698 22.5379C24.6637 20.7674 25.8874 17.7513 25.2691 13.8735Z"
        fill="white" />
</svg>