<svg id="in" xmlns="http://www.w3.org/2000/svg" width="32" height="32" viewBox="0 0 32 32" fill="none">
    <path fill-rule="evenodd" clip-rule="evenodd"
        d="M26.3291 24.7152H22.3564V17.4806C22.3564 15.496 21.5151 14.3889 20.0065 14.3889C18.3648 14.3889 17.3904 15.5425 17.3904 17.4806V24.7152H13.4177V11.2776H17.3904V12.7888C17.3904 12.7888 18.6369 10.5127 21.4456 10.5127C24.2553 10.5127 26.3291 12.2968 26.3291 15.9891C26.3291 19.6803 26.3291 24.7152 26.3291 24.7152ZM7.60797 7.93006C6.53789 7.93006 5.67087 7.06265 5.67087 5.99296C5.67087 4.92405 6.53789 4.05664 7.60797 4.05664C8.67727 4.05664 9.54429 4.92405 9.54429 5.99296C9.54508 7.06265 8.67727 7.93006 7.60797 7.93006ZM5.67087 24.7152H9.54429V11.8038H5.67087V24.7152Z"
        fill="white" />
</svg>